<?xml version="1.0" encoding="utf-8"?>
<!-- Generator: Adobe Illustrator 17.0.0, SVG Export Plug-In . SVG Version: 6.00 Build 0)  -->
<!DOCTYPE svg PUBLIC "-//W3C//DTD SVG 1.1//EN" "http://www.w3.org/Graphics/SVG/1.1/DTD/svg11.dtd">
<svg version="1.1" id="Layer_1" xmlns="http://www.w3.org/2000/svg" xmlns:xlink="http://www.w3.org/1999/xlink" x="0px" y="0px"
	 width="3947.916px" height="3132.077px" viewBox="0 0 3947.916 3132.077" enable-background="new 0 0 3947.916 3132.077"
	 xml:space="preserve">
<filter  id="AI_GaussianBlur_7">
	<feGaussianBlur  stdDeviation="7"></feGaussianBlur>
</filter>
<g opacity="0.6" filter="url(#AI_GaussianBlur_7)">
	<path fill="#FFFFFF" d="M2176.779,1544.452c0,5.61-3.793,13.209-8.238,13.209h-867.167c-4.445,0-10.844-7.599-10.844-13.209
		v-297.12c0-5.61,6.399-9.313,10.844-9.313h867.167c4.445,0,8.238,3.703,8.238,9.313V1544.452z"/>
	<path fill="none" stroke="#FFFFFF" stroke-miterlimit="10" d="M2176.779,1544.452c0,5.61-3.793,13.209-8.238,13.209h-867.167
		c-4.445,0-10.844-7.599-10.844-13.209v-297.12c0-5.61,6.399-9.313,10.844-9.313h867.167c4.445,0,8.238,3.703,8.238,9.313V1544.452z
		"/>
</g>
<path fill="#FFFFFF" stroke="#000000" stroke-miterlimit="10" d="M2179.443,1526.431c0,2.209-2.955,4-6.865,4h-851.27
	c-3.91,0-6.865-1.791-6.865-4v-287c0-2.209,2.955-4,6.865-4h851.27c3.91,0,6.865,1.791,6.865,4V1526.431z"/>
<rect x="1410.657" y="1292.788" fill="none" width="672.571" height="194.286"/>
<text transform="matrix(1 0 0 1 1487.6276 1349.5867)"><tspan x="0" y="0" font-family="'MyriadPro-Regular'" font-size="80">Peut-on se faire </tspan><tspan x="-62.198" y="96" font-family="'MyriadPro-Regular'" font-size="80">oublier sur le web ?</tspan></text>
<g>
	<g opacity="0.6" filter="url(#AI_GaussianBlur_7)">
		<path d="M1097.943,686.706c0,2.946-1.643,6.225-4.522,6.225H531.786c-2.879,0-5.843-3.279-5.843-6.225V530.703
			c0-2.946,2.964-4.773,5.843-4.773h561.636c2.879,0,4.522,1.827,4.522,4.773V686.706z"/>
	</g>
	<path opacity="0.6" fill="#662D91" d="M1114.943,668.706c0,2.946-1.643,6.225-4.522,6.225H548.786
		c-2.879,0-5.843-3.279-5.843-6.225V512.703c0-2.946,2.964-4.773,5.843-4.773h561.636c2.879,0,4.522,1.827,4.522,4.773V668.706z"/>
</g>
<g>
	<g opacity="0.6" filter="url(#AI_GaussianBlur_7)">
		<path d="M2642.943,843.541c0,3.452-1.643,7.295-4.522,7.295h-561.635c-2.879,0-5.843-3.843-5.843-7.295V660.714
			c0-3.452,2.964-5.594,5.843-5.594h561.635c2.879,0,4.522,2.142,4.522,5.594V843.541z"/>
	</g>
	<path opacity="0.6" fill="#662D91" d="M2659.943,822.445c0,3.452-1.643,7.485-4.522,7.485h-561.635
		c-2.879,0-5.843-4.033-5.843-7.485V639.619c0-3.452,2.964-5.689,5.843-5.689h561.635c2.879,0,4.522,2.237,4.522,5.689V822.445z"/>
</g>
<g>
	<g opacity="0.6" filter="url(#AI_GaussianBlur_7)">
		<path d="M1280.77,1770.326c0,2.387-1.293,5.044-3.557,5.044H835.337c-2.265,0-4.597-2.657-4.597-5.044v-126.411
			c0-2.387,2.332-3.868,4.597-3.868h441.876c2.265,0,3.557,1.481,3.557,3.868V1770.326z"/>
	</g>
	<path opacity="0.6" fill="#662D91" d="M1293.943,1755.74c0,2.387-1.09,5.19-3.355,5.19H848.712c-2.265,0-4.769-2.803-4.769-5.19
		v-126.411c0-2.387,2.504-4.399,4.769-4.399h441.876c2.265,0,3.355,2.012,3.355,4.399V1755.74z"/>
</g>
<rect x="841.5" y="1645.681" fill="none" width="455.893" height="137.5"/>
<text transform="matrix(1 0 0 1 938.9123 1679.7592)"><tspan x="0" y="0" fill="#FFFFFF" font-family="'MyriadPro-Regular'" font-size="48">Economie de </tspan><tspan x="27.048" y="57.601" fill="#FFFFFF" font-family="'MyriadPro-Regular'" font-size="48">l’attention</tspan></text>
<g>
	<g opacity="0.6" filter="url(#AI_GaussianBlur_7)">
		<path d="M2881.434,1357.428c0,2.857-1.596,6.038-4.391,6.038h-545.425c-2.796,0-5.674-3.181-5.674-6.038V1206.1
			c0-2.857,2.878-4.63,5.674-4.63h545.425c2.796,0,4.391,1.773,4.391,4.63V1357.428z"/>
	</g>
	<path opacity="0.6" fill="#662D91" d="M2897.943,1339.967c0,2.857-1.595,6.963-4.391,6.963h-545.426
		c-2.796,0-5.183-4.106-5.183-6.963v-151.328c0-2.857,2.388-4.708,5.183-4.708h545.426c2.796,0,4.391,1.851,4.391,4.708V1339.967z"
		/>
</g>
<rect x="594.621" y="536.645" fill="none" width="455.893" height="103.55"/>
<text transform="matrix(1 0 0 1 646.3865 570.7254)"><tspan x="0" y="0" fill="#FFFFFF" font-family="'MyriadPro-Regular'" font-size="48">Comment se faire </tspan><tspan x="90.144" y="57.6" fill="#FFFFFF" font-family="'MyriadPro-Regular'" font-size="48">oublier ?</tspan></text>
<g>
	<g opacity="0.6" filter="url(#AI_GaussianBlur_7)">
		<path d="M774.513,962.607c0,2.613-2.051,6.152-4.455,6.152H301.12c-2.404,0-5.864-3.539-5.864-6.152V824.214
			c0-2.613,3.46-4.338,5.864-4.338h468.939c2.404,0,4.455,1.725,4.455,4.338V962.607z"/>
	</g>
	<path opacity="0.6" d="M791.943,947.832c0,2.613-2.364,6.098-4.768,6.098H318.236c-2.404,0-6.293-3.485-6.293-6.098V809.44
		c0-2.613,3.89-4.509,6.293-4.509h468.939c2.404,0,4.768,1.896,4.768,4.509V947.832z"/>
</g>
<g>
	<g opacity="0.6" filter="url(#AI_GaussianBlur_7)">
		<path d="M504.913,1256.607c0,2.613-1.132,6.152-2.458,6.152H243.766c-1.326,0-3.235-3.539-3.235-6.152v-138.393
			c0-2.613,1.909-4.338,3.235-4.338h258.689c1.326,0,2.458,1.725,2.458,4.338V1256.607z"/>
	</g>
	<path opacity="0.6" d="M513.943,1241.832c0,2.613-0.72,6.098-2.046,6.098H253.208c-1.326,0-3.265-3.485-3.265-6.098V1103.44
		c0-2.613,1.939-4.509,3.265-4.509h258.689c1.326,0,2.046,1.896,2.046,4.509V1241.832z"/>
</g>
<g>
	<g opacity="0.6" filter="url(#AI_GaussianBlur_7)">
		<path d="M837.913,1263.607c0,2.613-1.132,6.152-2.458,6.152H576.766c-1.326,0-3.235-3.539-3.235-6.152v-138.393
			c0-2.613,1.909-4.338,3.235-4.338h258.689c1.326,0,2.458,1.725,2.458,4.338V1263.607z"/>
	</g>
	<path opacity="0.6" d="M846.943,1248.832c0,2.613-0.72,6.098-2.046,6.098H586.208c-1.326,0-3.265-3.485-3.265-6.098V1110.44
		c0-2.613,1.939-4.509,3.265-4.509h258.689c1.326,0,2.046,1.896,2.046,4.509V1248.832z"/>
</g>
<rect x="600.755" y="1154.439" fill="none" width="228.375" height="51.982"/>
<text transform="matrix(1 0 0 1 645.7996 1188.5195)" fill="#FFFFFF" font-family="'MyriadPro-Regular'" font-size="48">Amont</text>
<rect x="267.755" y="1154.439" fill="none" width="228.375" height="51.982"/>
<text transform="matrix(1 0 0 1 338.4793 1188.5195)" fill="#FFFFFF" font-family="'MyriadPro-Regular'" font-size="48">Aval</text>
<g opacity="0.6" filter="url(#AI_GaussianBlur_7)">
	<path d="M1298.943,969.607c0,2.613-1.798,6.152-3.904,6.152H884.082c-2.106,0-5.139-3.539-5.139-6.152V831.214
		c0-2.613,3.033-4.338,5.139-4.338h410.957c2.106,0,3.904,1.725,3.904,4.338V969.607z"/>
</g>
<path opacity="0.6" d="M1313.943,954.832c0,2.613-1.798,6.098-3.904,6.098H899.082c-2.106,0-5.139-3.485-5.139-6.098V816.44
	c0-2.613,3.033-4.509,5.139-4.509h410.957c2.106,0,3.904,1.896,3.904,4.509V954.832z"/>
<rect x="904.568" y="828.156" fill="none" width="399.75" height="103.964"/>
<text transform="matrix(1 0 0 1 966.1815 862.2356)"><tspan x="0" y="0" fill="#FFFFFF" font-family="'MyriadPro-Regular'" font-size="48">Quels sont les </tspan><tspan x="-33.983" y="57.6" fill="#FFFFFF" font-family="'MyriadPro-Regular'" font-size="48">leviers collectifs ?</tspan></text>
<rect x="325.943" y="827.448" fill="none" width="451" height="103.964"/>
<text transform="matrix(1 0 0 1 413.1815 861.5284)"><tspan x="0" y="0" fill="#FFFFFF" font-family="'MyriadPro-Regular'" font-size="48">Quels sont les </tspan><tspan x="-72.767" y="57.6" fill="#FFFFFF" font-family="'MyriadPro-Regular'" font-size="48">leviers individuelles ?</tspan></text>
<g>
	<g opacity="0.6" filter="url(#AI_GaussianBlur_7)">
		<path d="M2585.513,203.236c0,1.546-2.051,3.641-4.455,3.641H2112.12c-2.404,0-5.864-2.094-5.864-3.641v-81.894
			c0-1.546,3.46-2.567,5.864-2.567h468.939c2.404,0,4.455,1.021,4.455,2.567V203.236z"/>
	</g>
	<path opacity="0.6" d="M2602.943,194.493c0,1.546-2.364,3.438-4.768,3.438h-468.939c-2.404,0-6.293-1.891-6.293-3.438v-81.894
		c0-1.546,3.89-2.668,6.293-2.668h468.939c2.404,0,4.768,1.122,4.768,2.668V194.493z"/>
</g>
<rect x="2136.943" y="132.448" fill="none" width="451" height="51.982"/>
<text transform="matrix(1 0 0 1 2218.3972 166.5284)" fill="#FFFFFF" font-family="'MyriadPro-Regular'" font-size="48">Effet Streisand</text>
<g>
	<g opacity="0.6" filter="url(#AI_GaussianBlur_7)">
		<path d="M3165.513,349.607c0,2.613-2.051,6.152-4.455,6.152H2692.12c-2.404,0-5.864-3.539-5.864-6.152V211.214
			c0-2.613,3.46-4.338,5.864-4.338h468.939c2.404,0,4.455,1.725,4.455,4.338V349.607z"/>
	</g>
	<path opacity="0.6" d="M3182.943,334.832c0,2.613-2.364,6.098-4.768,6.098h-468.939c-2.404,0-6.293-3.485-6.293-6.098V196.44
		c0-2.613,3.89-4.509,6.293-4.509h468.939c2.404,0,4.768,1.896,4.768,4.509V334.832z"/>
</g>
<rect x="2716.943" y="214.448" fill="none" width="451" height="103.964"/>
<text transform="matrix(1 0 0 1 2784.8142 248.5284)"><tspan x="0" y="0" fill="#FFFFFF" font-family="'MyriadPro-Regular'" font-size="48">Piratages, fuites </tspan><tspan x="11.015" y="57.6" fill="#FFFFFF" font-family="'MyriadPro-Regular'" font-size="48">d’informations</tspan></text>
<g>
	<g opacity="0.6" filter="url(#AI_GaussianBlur_7)">
		<path d="M3396.513,573.607c0,2.613-2.051,6.152-4.455,6.152H2923.12c-2.404,0-5.864-3.539-5.864-6.152V435.214
			c0-2.613,3.46-4.338,5.864-4.338h468.939c2.404,0,4.455,1.725,4.455,4.338V573.607z"/>
	</g>
	<path opacity="0.6" d="M3413.943,558.832c0,2.613-2.364,6.098-4.768,6.098h-468.939c-2.404,0-6.293-3.485-6.293-6.098V420.44
		c0-2.613,3.89-4.509,6.293-4.509h468.939c2.404,0,4.768,1.896,4.768,4.509V558.832z"/>
</g>
<rect x="2947.943" y="438.448" fill="none" width="451" height="103.964"/>
<text transform="matrix(1 0 0 1 3060.1892 472.5284)"><tspan x="0" y="0" fill="#FFFFFF" font-family="'MyriadPro-Regular'" font-size="48">Décès de la </tspan><tspan x="18.384" y="57.6" fill="#FFFFFF" font-family="'MyriadPro-Regular'" font-size="48">personne</tspan></text>
<g>
	<g opacity="0.6" filter="url(#AI_GaussianBlur_7)">
		<path d="M3577.513,1767.205c0,3.468-2.051,8.166-4.455,8.166H3104.12c-2.404,0-5.864-4.698-5.864-8.166v-183.68
			c0-3.468,3.46-5.758,5.864-5.758h468.939c2.404,0,4.455,2.289,4.455,5.758V1767.205z"/>
	</g>
	<path opacity="0.6" d="M3594.943,1747.595c0,3.468-2.364,8.335-4.768,8.335h-468.939c-2.404,0-6.293-4.867-6.293-8.335v-183.68
		c0-3.468,3.89-5.985,6.293-5.985h468.939c2.404,0,4.768,2.517,4.768,5.985V1747.595z"/>
</g>
<rect x="3128.943" y="1580.448" fill="none" width="451" height="161.292"/>
<text transform="matrix(1 0 0 1 3160.406 1614.5284)"><tspan x="0" y="0" fill="#FFFFFF" font-family="'MyriadPro-Regular'" font-size="48">Identité numérique</tspan><tspan x="168.813" y="57.6" fill="#FFFFFF" font-family="'MyriadPro-Regular'" font-size="48">VS</tspan><tspan x="87.719" y="115.199" fill="#FFFFFF" font-family="'MyriadPro-Regular'" font-size="48">réputation</tspan></text>
<g>
	<g opacity="0.6" filter="url(#AI_GaussianBlur_7)">
		<path d="M2775.513,2027.205c0,3.468-2.051,8.166-4.455,8.166H2302.12c-2.404,0-5.864-4.698-5.864-8.166v-183.68
			c0-3.468,3.46-5.758,5.864-5.758h468.939c2.404,0,4.455,2.289,4.455,5.758V2027.205z"/>
	</g>
	<path opacity="0.6" fill="#662D91" d="M2792.943,2007.595c0,3.468-2.364,8.335-4.768,8.335h-468.939
		c-2.404,0-6.293-4.867-6.293-8.335v-183.68c0-3.468,3.89-5.985,6.293-5.985h468.939c2.404,0,4.768,2.517,4.768,5.985V2007.595z"/>
</g>
<rect x="2326.943" y="1862.431" fill="none" width="451" height="109"/>
<text transform="matrix(1 0 0 1 2343.2136 1896.5105)"><tspan x="0" y="0" fill="#FFFFFF" font-family="'MyriadPro-Regular'" font-size="48">Gestion des données </tspan><tspan x="59.399" y="57.6" fill="#FFFFFF" font-family="'MyriadPro-Regular'" font-size="48">des utilisateurs</tspan></text>
<g>
	<g opacity="0.6" filter="url(#AI_GaussianBlur_7)">
		<path d="M1856.514,2136.205c0,3.468-2.051,8.166-4.455,8.166H1383.12c-2.404,0-5.864-4.698-5.864-8.166v-183.68
			c0-3.468,3.461-5.758,5.864-5.758h468.939c2.404,0,4.455,2.289,4.455,5.758V2136.205z"/>
	</g>
	<path opacity="0.6" fill="#662D91" d="M1873.943,2116.595c0,3.468-2.364,8.335-4.768,8.335h-468.939
		c-2.404,0-6.293-4.867-6.293-8.335v-183.68c0-3.468,3.89-5.985,6.293-5.985h468.939c2.404,0,4.768,2.517,4.768,5.985V2116.595z"/>
</g>
<rect x="1407.943" y="1949.448" fill="none" width="451" height="161.292"/>
<text transform="matrix(1 0 0 1 1423.3026 1983.5284)"><tspan x="0" y="0" fill="#FFFFFF" font-family="'MyriadPro-Regular'" font-size="48">Sécurité des citoyens </tspan><tspan x="184.917" y="57.6" fill="#FFFFFF" font-family="'MyriadPro-Regular'" font-size="48">VS</tspan><tspan x="112.198" y="115.199" fill="#FFFFFF" font-family="'MyriadPro-Regular'" font-size="48">Vie Privée</tspan></text>
<g>
	<g opacity="0.6" filter="url(#AI_GaussianBlur_7)">
		<path d="M3555.513,1284.832c0,3.379-2.051,7.956-4.455,7.956H3082.12c-2.404,0-5.864-4.577-5.864-7.956v-178.964
			c0-3.379,3.46-5.61,5.864-5.61h468.939c2.404,0,4.455,2.231,4.455,5.61V1284.832z"/>
	</g>
	<path opacity="0.6" d="M3572.943,1265.726c0,3.379-2.364,8.205-4.768,8.205h-468.939c-2.404,0-6.293-4.826-6.293-8.205v-178.964
		c0-3.379,3.89-5.831,6.293-5.831h468.939c2.404,0,4.768,2.452,4.768,5.831V1265.726z"/>
</g>
<rect x="3106.943" y="1103.448" fill="none" width="451" height="161.982"/>
<text transform="matrix(1 0 0 1 3204.6208 1137.5284)"><tspan x="0" y="0" fill="#FFFFFF" font-family="'MyriadPro-Regular'" font-size="48">Problème de </tspan><tspan x="-30.527" y="57.6" fill="#FFFFFF" font-family="'MyriadPro-Regular'" font-size="48">changement de </tspan><tspan x="39.527" y="115.199" fill="#FFFFFF" font-family="'MyriadPro-Regular'" font-size="48">contexte</tspan></text>
<g>
	<g opacity="0.6" filter="url(#AI_GaussianBlur_7)">
		<path d="M3148.513,2787.568c0,2.53-2.051,5.956-4.455,5.956H2675.12c-2.404,0-5.864-3.426-5.864-5.956v-133.969
			c0-2.53,3.46-4.199,5.864-4.199h468.939c2.404,0,4.455,1.67,4.455,4.199V2787.568z"/>
	</g>
	<path opacity="0.6" d="M3165.943,2773.265c0,2.53-2.364,5.665-4.768,5.665h-468.939c-2.404,0-6.293-3.136-6.293-5.665v-133.969
		c0-2.53,3.89-4.365,6.293-4.365h468.939c2.404,0,4.768,1.836,4.768,4.365V2773.265z"/>
</g>
<rect x="2699.943" y="2657.448" fill="none" width="451" height="112.186"/>
<text transform="matrix(1 0 0 1 2755.7175 2691.5283)"><tspan x="0" y="0" fill="#FFFFFF" font-family="'MyriadPro-Regular'" font-size="48">Traces d’activités </tspan><tspan x="70.199" y="57.6" fill="#FFFFFF" font-family="'MyriadPro-Regular'" font-size="48">collectées</tspan></text>
<g>
	<g opacity="0.6" filter="url(#AI_GaussianBlur_7)">
		<path d="M3892.513,2316.205c0,3.468-2.051,8.166-4.455,8.166H3419.12c-2.404,0-5.864-4.698-5.864-8.166v-183.68
			c0-3.468,3.46-5.758,5.864-5.758h468.939c2.404,0,4.455,2.29,4.455,5.758V2316.205z"/>
	</g>
	<path opacity="0.6" d="M3909.943,2296.595c0,3.468-2.364,8.335-4.768,8.335h-468.939c-2.404,0-6.293-4.867-6.293-8.335v-183.68
		c0-3.468,3.89-5.985,6.293-5.985h468.939c2.404,0,4.768,2.517,4.768,5.985V2296.595z"/>
</g>
<rect x="3443.943" y="2154.923" fill="none" width="451" height="161.292"/>
<text transform="matrix(1 0 0 1 3498.8064 2189.0029)"><tspan x="0" y="0" fill="#FFFFFF" font-family="'MyriadPro-Regular'" font-size="48">Notion d’identité </tspan><tspan x="59.83" y="57.6" fill="#FFFFFF" font-family="'MyriadPro-Regular'" font-size="48">numérique</tspan></text>
<g>
	<g opacity="0.6" filter="url(#AI_GaussianBlur_7)">
		<path d="M3628.513,2518.552c0,1.651-2.051,3.887-4.455,3.887H3155.12c-2.404,0-5.864-2.236-5.864-3.887v-87.438
			c0-1.651,3.46-2.741,5.864-2.741h468.939c2.404,0,4.455,1.09,4.455,2.741V2518.552z"/>
	</g>
	<path opacity="0.6" d="M3645.943,2509.218c0,1.651-2.364,3.713-4.768,3.713h-468.939c-2.404,0-6.293-2.062-6.293-3.713v-87.438
		c0-1.651,3.89-2.849,6.293-2.849h468.939c2.404,0,4.768,1.198,4.768,2.849V2509.218z"/>
</g>
<rect x="3179.943" y="2441.448" fill="none" width="451" height="54.014"/>
<text transform="matrix(1 0 0 1 3186.3259 2475.5283)" fill="#FFFFFF" font-family="'MyriadPro-Regular'" font-size="48">Consentement éclairé</text>
<g>
	<g opacity="0.6" filter="url(#AI_GaussianBlur_7)">
		<path d="M2087.513,2619.205c0,3.468-2.051,8.166-4.455,8.166H1614.12c-2.404,0-5.864-4.698-5.864-8.166v-183.68
			c0-3.468,3.461-5.758,5.864-5.758h468.939c2.404,0,4.455,2.29,4.455,5.758V2619.205z"/>
	</g>
	<path opacity="0.6" d="M2104.943,2599.595c0,3.468-2.364,8.335-4.768,8.335h-468.939c-2.404,0-6.293-4.867-6.293-8.335v-183.68
		c0-3.468,3.89-5.985,6.293-5.985h468.939c2.404,0,4.768,2.517,4.768,5.985V2599.595z"/>
</g>
<rect x="1638.943" y="2470.463" fill="none" width="451" height="96.12"/>
<text transform="matrix(1 0 0 1 1648.7821 2504.5427)"><tspan x="0" y="0" fill="#FFFFFF" font-family="'MyriadPro-Regular'" font-size="48">Quelles données sont </tspan><tspan x="98.087" y="57.6" fill="#FFFFFF" font-family="'MyriadPro-Regular'" font-size="48">exploitées ?</tspan></text>
<g>
	<g opacity="0.6" filter="url(#AI_GaussianBlur_7)">
		<path d="M1325.685,2715.821c0,5.185-2.384,12.209-5.178,12.209H775.465c-2.794,0-6.816-7.023-6.816-12.209v-274.624
			c0-5.185,4.022-8.608,6.816-8.608h545.042c2.794,0,5.178,3.423,5.178,8.608V2715.821z"/>
	</g>
	<path opacity="0.6" d="M1345.943,2686.502c0,5.185-2.748,12.428-5.542,12.428H795.359c-2.794,0-7.417-7.243-7.417-12.428v-274.624
		c0-5.185,4.623-8.948,7.417-8.948h545.042c2.794,0,5.542,3.763,5.542,8.948V2686.502z"/>
</g>
<rect x="787.943" y="2459.974" fill="none" width="543" height="253.914"/>
<text transform="matrix(1 0 0 1 871.6219 2494.054)"><tspan x="0" y="0" fill="#FFFFFF" font-family="'MyriadPro-Regular'" font-size="48">Est-il nécessaire de </tspan><tspan x="-50.447" y="57.6" fill="#FFFFFF" font-family="'MyriadPro-Regular'" font-size="48">surveiller tout le monde </tspan><tspan x="-53.11" y="115.199" fill="#FFFFFF" font-family="'MyriadPro-Regular'" font-size="48">pour en trouver un petit </tspan><tspan x="92.951" y="172.8" fill="#FFFFFF" font-family="'MyriadPro-Regular'" font-size="48">nombre ?</tspan></text>
<g>
	<g opacity="0.6" filter="url(#AI_GaussianBlur_7)">
		<path d="M3846.513,1480.607c0,2.613-2.051,6.152-4.455,6.152H3373.12c-2.404,0-5.864-3.539-5.864-6.152v-138.393
			c0-2.613,3.46-4.338,5.864-4.338h468.939c2.404,0,4.455,1.725,4.455,4.338V1480.607z"/>
	</g>
	<path opacity="0.6" d="M3863.943,1465.832c0,2.613-2.364,6.098-4.768,6.098h-468.939c-2.404,0-6.293-3.485-6.293-6.098V1327.44
		c0-2.613,3.89-4.509,6.293-4.509h468.939c2.404,0,4.768,1.896,4.768,4.509V1465.832z"/>
</g>
<rect x="3397.943" y="1345.448" fill="none" width="451" height="103.964"/>
<text transform="matrix(1 0 0 1 3470.0613 1379.5284)"><tspan x="0" y="0" fill="#FFFFFF" font-family="'MyriadPro-Regular'" font-size="48">Emergence des </tspan><tspan x="16.512" y="57.6" fill="#FFFFFF" font-family="'MyriadPro-Regular'" font-size="48">infomédiaires</tspan></text>
<g>
	<g opacity="0.6" filter="url(#AI_GaussianBlur_7)">
		<path d="M3644.513,779.905c0,1.425-2.051,3.355-4.455,3.355H3171.12c-2.404,0-5.864-1.93-5.864-3.355v-75.46
			c0-1.425,3.46-2.365,5.864-2.365h468.939c2.404,0,4.455,0.94,4.455,2.365V779.905z"/>
	</g>
	<path opacity="0.6" d="M3661.943,771.849c0,1.425-2.364,3.082-4.768,3.082h-468.939c-2.404,0-6.293-1.657-6.293-3.082v-75.46
		c0-1.425,3.89-2.459,6.293-2.459h468.939c2.404,0,4.768,1.034,4.768,2.459V771.849z"/>
</g>
<rect x="3195.943" y="716.448" fill="none" width="451" height="51.982"/>
<text transform="matrix(1 0 0 1 3336.1482 750.5284)" fill="#FFFFFF" font-family="'MyriadPro-Regular'" font-size="48">Archives</text>
<g>
	<g opacity="0.6" filter="url(#AI_GaussianBlur_7)">
		<path d="M506.943,1865.012c0,3.216-1.798,7.573-3.904,7.573H92.082c-2.106,0-5.139-4.356-5.139-7.573v-170.345
			c0-3.216,3.033-5.34,5.139-5.34h410.957c2.106,0,3.904,2.123,3.904,5.34V1865.012z"/>
	</g>
	<path opacity="0.6" d="M521.943,1846.826c0,3.216-1.798,7.105-3.904,7.105H107.082c-2.106,0-5.139-3.888-5.139-7.105v-170.345
		c0-3.216,3.033-5.55,5.139-5.55h410.957c2.106,0,3.904,2.334,3.904,5.55V1846.826z"/>
</g>
<rect x="112.568" y="1687.156" fill="none" width="399.75" height="161.992"/>
<text transform="matrix(1 0 0 1 127.622 1721.2356)"><tspan x="0" y="0" fill="#FFFFFF" font-family="'MyriadPro-Regular'" font-size="48">Comment gérer sa </tspan><tspan x="66.359" y="57.6" fill="#FFFFFF" font-family="'MyriadPro-Regular'" font-size="48">visibilité sur </tspan><tspan x="89.831" y="115.199" fill="#FFFFFF" font-family="'MyriadPro-Regular'" font-size="48">Internet ?</tspan></text>
<g>
	<g opacity="0.6" filter="url(#AI_GaussianBlur_7)">
		<path d="M784.943,2191.012c0,3.216-1.798,7.573-3.904,7.573H370.082c-2.106,0-5.139-4.356-5.139-7.573v-170.345
			c0-3.216,3.033-5.34,5.139-5.34h410.957c2.106,0,3.904,2.123,3.904,5.34V2191.012z"/>
	</g>
	<path opacity="0.6" d="M799.943,2172.826c0,3.217-1.798,7.105-3.904,7.105H385.082c-2.106,0-5.139-3.888-5.139-7.105v-170.345
		c0-3.216,3.033-5.55,5.139-5.55h410.957c2.106,0,3.904,2.334,3.904,5.55V2172.826z"/>
</g>
<rect x="390.568" y="2013.156" fill="none" width="399.75" height="161.992"/>
<text transform="matrix(1 0 0 1 425.3983 2047.2356)"><tspan x="0" y="0" fill="#FFFFFF" font-family="'MyriadPro-Regular'" font-size="48">Disparaitre fait-il </tspan><tspan x="38.976" y="57.6" fill="#FFFFFF" font-family="'MyriadPro-Regular'" font-size="48">plus de bruit </tspan><tspan x="15.216" y="115.199" fill="#FFFFFF" font-family="'MyriadPro-Regular'" font-size="48">qu’apparaître ?</tspan></text>
<rect x="2100.657" y="656.645" fill="none" width="528.571" height="176.929"/>
<text transform="matrix(1 0 0 1 2152.3062 690.7254)"><tspan x="0" y="0" fill="#FFFFFF" font-family="'MyriadPro-Regular'" font-size="48">Liberté d’information </tspan><tspan x="187.413" y="57.6" fill="#FFFFFF" font-family="'MyriadPro-Regular'" font-size="48">VS</tspan><tspan x="110.567" y="115.199" fill="#FFFFFF" font-family="'MyriadPro-Regular'" font-size="48"> vie privée</tspan></text>
<rect x="2352.657" y="1222.288" fill="none" width="531.857" height="111.207"/>
<text transform="matrix(1 0 0 1 2404.7241 1256.368)"><tspan x="0" y="0" fill="#FFFFFF" font-family="'MyriadPro-Regular'" font-size="48">Gestion du status des </tspan><tspan x="126.958" y="57.6" fill="#FFFFFF" font-family="'MyriadPro-Regular'" font-size="48">données</tspan></text>
<g>
	<g>
		<path fill="none" stroke="#CCCCCC" stroke-width="10" stroke-miterlimit="10" d="M1704.653,1233.759
			c0-236.953-277.782-614.772-547.689-641.346"/>
		<g>
			<polygon fill="#CCCCCC" points="1172.057,575.033 1163.114,593.053 1169.876,612 1127.151,590.93 			"/>
		</g>
	</g>
</g>
<g>
	<g>
		<path fill="none" stroke="#CCCCCC" stroke-width="10" stroke-miterlimit="10" d="M1856.443,1235.431
			c0-199.958,32.249-361.545,176.127-380.687"/>
		<g>
			<polygon fill="#CCCCCC" points="2019.982,874.608 2026.434,855.553 2017.198,837.681 2062.357,852.845 			"/>
		</g>
	</g>
</g>
<g>
	<g>
		<path fill="none" stroke="#CCCCCC" stroke-width="10" stroke-miterlimit="10" d="M2179.443,1407.216
			c44.858-21.185,64.208-71.991,125.284-84.62"/>
		<g>
			<polygon fill="#CCCCCC" points="2292.947,1343.113 2298.652,1323.822 2288.727,1306.323 2334.443,1319.716 			"/>
		</g>
	</g>
</g>
<g>
	<g>
		<path fill="none" stroke="#CCCCCC" stroke-width="10" stroke-miterlimit="10" d="M1888.586,1530.431
			c0,184.609,191.008,318.521,379.052,378.011"/>
		<g>
			<polygon fill="#CCCCCC" points="2248.891,1922.016 2261.758,1906.551 2259.56,1886.554 2296.256,1916.931 			"/>
		</g>
	</g>
</g>
<g>
	<g>
		<path fill="none" stroke="#CCCCCC" stroke-width="10" stroke-miterlimit="10" d="M1626.086,1530.431
			c-48.291,123.383-168.323,157.893-302.296,162.052"/>
		<g>
			<polygon fill="#CCCCCC" points="1337.456,1673.541 1329.961,1692.211 1338.196,1710.565 1293.943,1692.931 			"/>
		</g>
	</g>
</g>
<g>
	<g>
		<path fill="none" stroke="#CCCCCC" stroke-width="10" stroke-miterlimit="10" d="M991.543,1775.37
			c-48.047,122.758-46.442,286.809-161.879,310.232"/>
		<g>
			<polygon fill="#CCCCCC" points="841.482,2065.112 835.741,2084.392 845.633,2101.91 799.943,2088.43 			"/>
		</g>
	</g>
</g>
<g>
	<g>
		<path fill="none" stroke="#CCCCCC" stroke-width="10" stroke-miterlimit="10" d="M1607.543,2126.37
			c-48.103,122.903-315.563,137.627-378.514,248.727"/>
		<g>
			<polygon fill="#CCCCCC" points="1217.962,2355.294 1232.048,2369.657 1252.164,2369.49 1218.237,2402.93 			"/>
		</g>
	</g>
</g>
<g>
	<g>
		<path fill="none" stroke="#CCCCCC" stroke-width="10" stroke-miterlimit="10" d="M1607.543,2126.37
			c-47.946,122.501,205.583,136.688,250.778,247.451"/>
		<g>
			<polygon fill="#CCCCCC" points="1836.133,2364.993 1856.02,2368.028 1872.01,2355.82 1864.943,2402.93 			"/>
		</g>
	</g>
</g>
<g>
	<g>
		<path fill="none" stroke="#CCCCCC" stroke-width="10" stroke-miterlimit="10" d="M2783.543,2016.37
			c135.691,68.666,408.308,132.276,608.729,175.894"/>
		<g>
			<polygon fill="#CCCCCC" points="3374.575,2207.113 3386.28,2190.751 3382.628,2170.968 3421.443,2198.584 			"/>
		</g>
	</g>
</g>
<g>
	<g>
		<path fill="none" stroke="#CCCCCC" stroke-width="10" stroke-miterlimit="10" d="M2897.943,1277.788
			c133.922,67.77,108.667,155.75,216.439,260.124"/>
		<g>
			<polygon fill="#CCCCCC" points="3091.653,1541.933 3109.961,1533.595 3116.668,1514.629 3136.524,1557.931 			"/>
		</g>
	</g>
</g>
<g>
	<g>
		<path fill="none" stroke="#CCCCCC" stroke-width="10" stroke-miterlimit="10" d="M2897.943,1277.788
			c135.424,68.531,268.317,92.76,456.117,123.357"/>
		<g>
			<polygon fill="#CCCCCC" points="3337.171,1416.918 3347.996,1399.962 3343.307,1380.398 3383.524,1405.931 			"/>
		</g>
	</g>
</g>
<g>
	<g>
		<path fill="none" stroke="#CCCCCC" stroke-width="10" stroke-miterlimit="10" d="M2659.943,639.619
			c126.881-75.657,282.74,89.045,486.73,98.996"/>
		<g>
			<polygon fill="#CCCCCC" points="3132.28,756.589 3140.505,738.229 3133.001,719.564 3176.524,738.93 			"/>
		</g>
	</g>
</g>
<g>
	<g>
		<path fill="none" stroke="#CCCCCC" stroke-width="10" stroke-miterlimit="10" d="M2659.943,639.619
			c124.03-73.957,117.839-109.927,244.027-130.466"/>
		<g>
			<polygon fill="#CCCCCC" points="2892.838,529.709 2897.891,510.236 2887.384,493.081 2933.524,504.931 			"/>
		</g>
	</g>
</g>
<g>
	<g>
		<path fill="none" stroke="#CCCCCC" stroke-width="10" stroke-miterlimit="10" d="M2659.943,639.619
			c122.445-73.011,31.953-159.653,49.445-269.701"/>
		<g>
			<polygon fill="#CCCCCC" points="2724.638,387.872 2708.38,376.023 2688.565,379.5 2716.524,340.931 			"/>
		</g>
	</g>
</g>
<g>
	<g>
		<path fill="none" stroke="#CCCCCC" stroke-width="10" stroke-miterlimit="10" d="M2659.943,639.619
			c79.431-98.54-68.87-272.826-80.257-411.837"/>
		<g>
			<polygon fill="#CCCCCC" points="2598.919,241.441 2580.249,233.949 2561.895,242.186 2579.524,197.93 			"/>
		</g>
	</g>
</g>
<g>
	<g>
		<path fill="none" stroke="#CCCCCC" stroke-width="10" stroke-miterlimit="10" d="M2897.943,1277.788
			c78.722,34.649,93.28-41.062,164.419-81.471"/>
		<g>
			<polygon fill="#CCCCCC" points="3057.776,1219.447 3056.963,1199.346 3041.931,1185.977 3089.524,1183.931 			"/>
		</g>
	</g>
</g>
<g>
	<g>
		<path fill="none" stroke="#CCCCCC" stroke-width="10" stroke-miterlimit="10" d="M2783.543,2016.37
			c135.932,68.787,327.084,205.987,451.593,374.893"/>
		<g>
			<polygon fill="#CCCCCC" points="3211.809,2390.722 3231.438,2386.317 3241.894,2369.13 3252.443,2415.584 			"/>
		</g>
	</g>
</g>
<g>
	<g>
		<path fill="none" stroke="#CCCCCC" stroke-width="10" stroke-miterlimit="10" d="M2783.543,2016.37
			c135.777,68.709,145.6,384.794,210.923,583.081"/>
		<g>
			<polygon fill="#CCCCCC" points="2972.503,2592.241 2992.576,2593.57 3007.468,2580.043 3004.443,2627.584 			"/>
		</g>
	</g>
</g>
<g>
	<g>
		<path fill="none" stroke="#CCCCCC" stroke-width="10" stroke-miterlimit="10" d="M991.543,1775.37
			c-48.49,123.889-286.017,16.071-435.793,1.564"/>
		<g>
			<polygon fill="#CCCCCC" points="570.879,1759.557 561.902,1777.561 568.628,1796.52 525.943,1775.37 			"/>
		</g>
	</g>
</g>
<g>
	<g>
		
			<line fill="none" stroke="#CCCCCC" stroke-width="10" stroke-miterlimit="10" x1="811.943" y1="668.319" x2="638.081" y2="784.516"/>
		<g>
			<polygon fill="#CCCCCC" points="639.468,761.319 643.216,781.084 660.045,792.107 613.264,801.102 			"/>
		</g>
	</g>
</g>
<g>
	<g>
		
			<line fill="none" stroke="#CCCCCC" stroke-width="10" stroke-miterlimit="10" x1="580.943" y1="954.319" x2="410.716" y2="1081.101"/>
		<g>
			<polygon fill="#CCCCCC" points="410.919,1057.864 415.67,1077.412 433.038,1087.563 386.777,1098.931 			"/>
		</g>
	</g>
</g>
<g>
	<g>
		
			<line fill="none" stroke="#CCCCCC" stroke-width="10" stroke-miterlimit="10" x1="846.943" y1="674.93" x2="1062.648" y2="790.805"/>
		<g>
			<polygon fill="#CCCCCC" points="1041.515,800.471 1057.207,787.882 1059.039,767.849 1088.943,804.93 			"/>
		</g>
	</g>
</g>
<g>
	<g>
		
			<line fill="none" stroke="#CCCCCC" stroke-width="10" stroke-miterlimit="10" x1="581.943" y1="953.93" x2="706.916" y2="1078.37"/>
		<g>
			<polygon fill="#CCCCCC" points="683.9,1081.582 702.539,1074.011 710.029,1055.34 728.067,1099.431 			"/>
		</g>
	</g>
</g>
<g>
	<g>
		<path fill="none" stroke="#CCCCCC" stroke-width="10" stroke-miterlimit="10" d="M1746.943,1530.431
			c0,200.937-62.885,264.064-89.124,367.294"/>
		<g>
			<polygon fill="#CCCCCC" points="1642.908,1880.104 1659.325,1891.73 1679.091,1887.985 1651.658,1926.931 			"/>
		</g>
	</g>
</g>
</svg>
