<?xml version="1.0" encoding="utf-8"?>
<!DOCTYPE svg PUBLIC "-//W3C//DTD SVG 1.1//EN" "http://www.w3.org/Graphics/SVG/1.1/DTD/svg11.dtd">
<svg version="1.1" id="Layer_1" xmlns="http://www.w3.org/2000/svg" xmlns:xlink="http://www.w3.org/1999/xlink" x="0px" y="0px"
	 width="4040.852px" height="3153.805px" viewBox="0 0 4040.852 3153.805" enable-background="new 0 0 4040.852 3153.805"
	 xml:space="preserve">
<filter  id="AI_GaussianBlur_7">
	<feGaussianBlur  stdDeviation="7"></feGaussianBlur>
</filter>
<g>
	<g opacity="0.6" filter="url(#AI_GaussianBlur_7)">
		<path fill="#FFFFFF" d="M2176.779,1566.181c0,5.61-3.793,13.209-8.238,13.209h-867.167c-4.445,0-10.844-7.599-10.844-13.209
			v-297.12c0-5.61,6.399-9.313,10.844-9.313h867.167c4.445,0,8.238,3.703,8.238,9.313V1566.181z"/>
		<path fill="none" stroke="#FFFFFF" stroke-miterlimit="10" d="M2176.779,1566.181c0,5.61-3.793,13.209-8.238,13.209h-867.167
			c-4.445,0-10.844-7.599-10.844-13.209v-297.12c0-5.61,6.399-9.313,10.844-9.313h867.167c4.445,0,8.238,3.703,8.238,9.313V1566.181
			z"/>
	</g>
	<path fill="#FFFFFF" stroke="#000000" stroke-miterlimit="10" d="M2179.443,1548.159c0,2.209-2.955,4-6.865,4h-851.27
		c-3.91,0-6.865-1.791-6.865-4v-287c0-2.209,2.955-4,6.865-4h851.27c3.91,0,6.865,1.791,6.865,4V1548.159z"/>
</g>
<rect x="1410.657" y="1314.516" fill="none" width="672.571" height="194.286"/>
<text transform="matrix(1 0 0 1 1487.6276 1371.3153)"><tspan x="0" y="0" font-family="'MyriadPro-Regular'" font-size="80">Peut-on se faire </tspan><tspan x="-62.198" y="96" font-family="'MyriadPro-Regular'" font-size="80">oublier sur le web ?</tspan></text>
<g>
	<g opacity="0.6" filter="url(#AI_GaussianBlur_7)">
		<path d="M1371.943,900.435c0,2.946-1.643,6.225-4.522,6.225H805.786c-2.879,0-5.843-3.279-5.843-6.225V744.432
			c0-2.946,2.964-4.773,5.843-4.773h561.636c2.879,0,4.522,1.827,4.522,4.773V900.435z"/>
	</g>
	<path opacity="0.6" fill="#662D91" d="M1388.943,882.435c0,2.946-1.643,6.225-4.522,6.225H822.786
		c-2.879,0-5.843-3.279-5.843-6.225V726.432c0-2.946,2.964-4.773,5.843-4.773h561.636c2.879,0,4.522,1.827,4.522,4.773V882.435z"/>
</g>
<g>
	<g opacity="0.6" filter="url(#AI_GaussianBlur_7)">
		<path d="M2642.943,865.269c0,3.452-1.643,7.295-4.522,7.295h-561.635c-2.879,0-5.843-3.843-5.843-7.295V682.443
			c0-3.452,2.964-5.594,5.843-5.594h561.635c2.879,0,4.522,2.142,4.522,5.594V865.269z"/>
	</g>
	<path opacity="0.6" fill="#662D91" d="M2659.943,844.174c0,3.452-1.643,7.485-4.522,7.485h-561.635
		c-2.879,0-5.843-4.033-5.843-7.485V661.348c0-3.452,2.964-5.689,5.843-5.689h561.635c2.879,0,4.522,2.237,4.522,5.689V844.174z"/>
</g>
<g>
	<g opacity="0.6" filter="url(#AI_GaussianBlur_7)">
		<path d="M1280.378,1848.694c0,3.448-1.331,7.286-3.663,7.286H821.677c-2.332,0-4.734-3.839-4.734-7.286v-182.61
			c0-3.448,2.401-5.587,4.734-5.587h455.038c2.332,0,3.663,2.139,3.663,5.587V1848.694z"/>
	</g>
	<path opacity="0.6" fill="#662D91" d="M1293.943,1827.624c0,3.448-1.123,7.036-3.455,7.036H835.45
		c-2.332,0-4.507-3.588-4.507-7.036v-182.61c0-3.448,2.175-6.354,4.507-6.354h455.038c2.332,0,3.455,2.906,3.455,6.354V1827.624z"/>
</g>
<rect x="833.5" y="1658.659" fill="none" width="455.893" height="156.025"/>
<text transform="matrix(1 0 0 1 839.9064 1692.7379)"><tspan x="0" y="0" fill="#FFFFFF" font-family="'MyriadPro-Regular'" font-size="48">Place du droit à l’oubli </tspan><tspan x="27.143" y="57.601" fill="#FFFFFF" font-family="'MyriadPro-Regular'" font-size="48">dans l’économie de </tspan><tspan x="103.223" y="115.2" fill="#FFFFFF" font-family="'MyriadPro-Regular'" font-size="48">l’attention ?</tspan></text>
<g>
	<g opacity="0.6" filter="url(#AI_GaussianBlur_7)">
		<path d="M2881.434,1379.157c0,2.857-1.596,6.038-4.391,6.038h-545.425c-2.796,0-5.674-3.181-5.674-6.038v-151.328
			c0-2.857,2.878-4.63,5.674-4.63h545.425c2.796,0,4.391,1.773,4.391,4.63V1379.157z"/>
	</g>
	<path opacity="0.6" fill="#662D91" d="M2897.943,1361.696c0,2.857-1.595,6.963-4.391,6.963h-545.426
		c-2.796,0-5.183-4.106-5.183-6.963v-151.328c0-2.857,2.388-4.708,5.183-4.708h545.426c2.796,0,4.391,1.851,4.391,4.708V1361.696z"
		/>
</g>
<rect x="868.621" y="750.374" fill="none" width="455.893" height="103.55"/>
<text transform="matrix(1 0 0 1 920.3865 784.4542)"><tspan x="0" y="0" fill="#FFFFFF" font-family="'MyriadPro-Regular'" font-size="48">Comment se faire </tspan><tspan x="90.144" y="57.6" fill="#FFFFFF" font-family="'MyriadPro-Regular'" font-size="48">oublier ?</tspan></text>
<g>
	<g opacity="0.6" filter="url(#AI_GaussianBlur_7)">
		<path d="M1168.552,418.907c0,3.186-1.937,7.501-4.207,7.501H721.481c-2.27,0-5.538-4.315-5.538-7.501V250.171
			c0-3.186,3.268-5.289,5.538-5.289h442.864c2.27,0,4.207,2.103,4.207,5.289V418.907z"/>
	</g>
	<path opacity="0.6" d="M1184.943,400.893c0,3.186-2.163,7.766-4.433,7.766H737.645c-2.27,0-5.703-4.58-5.703-7.766V232.157
		c0-3.186,3.433-5.498,5.703-5.498h442.864c2.27,0,4.433,2.312,4.433,5.498V400.893z"/>
</g>
<rect x="745.195" y="239.884" fill="none" width="426.495" height="168.775"/>
<text transform="matrix(1 0 0 1 789.4142 273.9644)"><tspan x="0" y="0" fill="#FFFFFF" font-family="'MyriadPro-Regular'" font-size="48">Faut-il privilégier </tspan><tspan x="-20.88" y="57.6" fill="#FFFFFF" font-family="'MyriadPro-Regular'" font-size="48">l’action collective à </tspan><tspan x="-41.279" y="115.199" fill="#FFFFFF" font-family="'MyriadPro-Regular'" font-size="48">l’action individuelle ?</tspan></text>
<g>
	<g opacity="0.6" filter="url(#AI_GaussianBlur_7)">
		<path d="M607.539,677.886c0,4.081-2.3,9.608-4.996,9.608H76.682c-2.695,0-6.576-5.527-6.576-9.608V461.773
			c0-4.081,3.881-6.774,6.576-6.774h525.861c2.695,0,4.996,2.694,4.996,6.774V677.886z"/>
	</g>
	<path opacity="0.6" d="M626.943,654.814c0,4.081-2.51,9.845-5.206,9.845H95.876c-2.695,0-5.933-5.765-5.933-9.845V438.701
		c0-4.081,3.238-7.042,5.933-7.042h525.861c2.695,0,5.206,2.961,5.206,7.042V654.814z"/>
</g>
<rect x="118.195" y="439.884" fill="none" width="479.375" height="219.643"/>
<text transform="matrix(1 0 0 1 228.8127 473.9644)"><tspan x="0" y="0" fill="#FFFFFF" font-family="'MyriadPro-Regular'" font-size="48">Les solutions </tspan><tspan x="-62.062" y="57.6" fill="#FFFFFF" font-family="'MyriadPro-Regular'" font-size="48">disponibles en aval </tspan><tspan x="-110.614" y="115.199" fill="#FFFFFF" font-family="'MyriadPro-Regular'" font-size="48">sont elles aussi efficaces </tspan><tspan x="-13.919" y="172.8" fill="#FFFFFF" font-family="'MyriadPro-Regular'" font-size="48">qu’en amont ?</tspan></text>
<g>
	<g opacity="0.6" filter="url(#AI_GaussianBlur_7)">
		<path d="M3098.256,1676.253c0-3.468,3.46-5.757,5.864-5.757"/>
	</g>
	<path opacity="0.6" d="M3114.943,1656.644c0-3.468,3.89-5.985,6.293-5.985"/>
</g>
<g>
	<g opacity="0.6" filter="url(#AI_GaussianBlur_7)">
		<path d="M2775.513,2027.553c0,3.114-2.051,7.331-4.455,7.331H2302.12c-2.404,0-5.864-4.218-5.864-7.331v-164.914
			c0-3.114,3.46-5.169,5.864-5.169h468.939c2.404,0,4.455,2.055,4.455,5.169V2027.553z"/>
	</g>
	<path opacity="0.6" fill="#662D91" d="M2792.943,2009.947c0,3.114-2.364,7.713-4.768,7.713h-468.939
		c-2.404,0-6.293-4.599-6.293-7.713v-164.914c0-3.114,3.89-5.373,6.293-5.373h468.939c2.404,0,4.768,2.259,4.768,5.373V2009.947z"/>
</g>
<rect x="2326.943" y="1884.159" fill="none" width="451" height="109"/>
<text transform="matrix(1 0 0 1 2383.366 1918.2393)"><tspan x="0" y="0" fill="#FFFFFF" font-family="'MyriadPro-Regular'" font-size="48">Qu’advient-il des </tspan><tspan x="67.343" y="57.6" fill="#FFFFFF" font-family="'MyriadPro-Regular'" font-size="48">données ?</tspan></text>
<g>
	<g opacity="0.6" filter="url(#AI_GaussianBlur_7)">
		<path d="M1856.514,2157.933c0,3.468-2.051,8.166-4.455,8.166H1383.12c-2.404,0-5.864-4.698-5.864-8.166v-183.68
			c0-3.468,3.461-5.757,5.864-5.757h468.939c2.404,0,4.455,2.289,4.455,5.757V2157.933z"/>
	</g>
	<path opacity="0.6" fill="#662D91" d="M1873.943,2138.324c0,3.468-2.364,8.335-4.768,8.335h-468.939
		c-2.404,0-6.293-4.867-6.293-8.335v-183.68c0-3.468,3.89-5.985,6.293-5.985h468.939c2.404,0,4.768,2.517,4.768,5.985V2138.324z"/>
</g>
<rect x="1407.943" y="1971.177" fill="none" width="451" height="161.292"/>
<text transform="matrix(1 0 0 1 1423.3026 2005.2572)"><tspan x="0" y="0" fill="#FFFFFF" font-family="'MyriadPro-Regular'" font-size="48">Sécurité des citoyens </tspan><tspan x="184.917" y="57.6" fill="#FFFFFF" font-family="'MyriadPro-Regular'" font-size="48">VS</tspan><tspan x="112.198" y="115.199" fill="#FFFFFF" font-family="'MyriadPro-Regular'" font-size="48">Vie Privée</tspan></text>
<g>
	<g opacity="0.6" filter="url(#AI_GaussianBlur_7)">
		<path d="M3774.355,1281.665c0,4.707-2.65,11.082-5.755,11.082h-605.77c-3.105,0-7.575-6.375-7.575-11.082v-249.272
			c0-4.707,4.47-7.814,7.575-7.814h605.77c3.105,0,5.755,3.107,5.755,7.814V1281.665z"/>
	</g>
	<path opacity="0.6" d="M3796.943,1255.053c0,4.707-3.127,10.606-6.231,10.606h-605.77c-3.105,0-7.999-5.899-7.999-10.606v-249.272
		c0-4.707,4.894-8.122,7.999-8.122h605.77c3.105,0,6.231,3.415,6.231,8.122V1255.053z"/>
</g>
<rect x="3198.943" y="1021.177" fill="none" width="571.451" height="216.268"/>
<text transform="matrix(1 0 0 1 3209.3933 1055.2572)"><tspan x="0" y="0" fill="#FFFFFF" font-family="'MyriadPro-Regular'" font-size="48">Quand une donnée publiée </tspan><tspan x="46.559" y="57.6" fill="#FFFFFF" font-family="'MyriadPro-Regular'" font-size="48">dans un contexte privé </tspan><tspan x="15.264" y="115.199" fill="#FFFFFF" font-family="'MyriadPro-Regular'" font-size="48">entre-t-elle dans la sphère </tspan><tspan x="169.869" y="172.8" fill="#FFFFFF" font-family="'MyriadPro-Regular'" font-size="48">publique ?</tspan></text>
<g>
	<g opacity="0.6" filter="url(#AI_GaussianBlur_7)">
		<path d="M3847.355,1571.685c0,3.447-2.65,8.117-5.755,8.117h-605.77c-3.105,0-7.575-4.67-7.575-8.117v-182.584
			c0-3.448,4.47-5.723,7.575-5.723h605.77c3.105,0,5.755,2.276,5.755,5.723V1571.685z"/>
	</g>
	<path opacity="0.6" d="M3869.943,1552.193c0,3.448-3.127,7.467-6.231,7.467h-605.77c-3.105,0-7.999-4.019-7.999-7.467v-182.584
		c0-3.447,4.894-5.949,7.999-5.949h605.77c3.105,0,6.231,2.502,6.231,5.949V1552.193z"/>
</g>
<rect x="3271.943" y="1387.177" fill="none" width="571.451" height="192.625"/>
<text transform="matrix(1 0 0 1 3315.1765 1421.2572)"><tspan x="0" y="0" fill="#FFFFFF" font-family="'MyriadPro-Regular'" font-size="48">Les infomédiaires ont-ils </tspan><tspan x="7.632" y="57.6" fill="#FFFFFF" font-family="'MyriadPro-Regular'" font-size="48">transformé la notion de </tspan><tspan x="105.815" y="115.199" fill="#FFFFFF" font-family="'MyriadPro-Regular'" font-size="48">public/privé ?</tspan></text>
<g>
	<g opacity="0.6" filter="url(#AI_GaussianBlur_7)">
		<path d="M2507.355,233.905c0,2.54-2.65,5.98-5.755,5.98h-605.77c-3.105,0-7.575-3.44-7.575-5.98V99.401
			c0-2.54,4.47-4.216,7.575-4.216h605.77c3.105,0,5.755,1.676,5.755,4.216V233.905z"/>
	</g>
	<path opacity="0.6" d="M2529.943,219.545c0,2.54-3.127,5.114-6.231,5.114h-605.77c-3.105,0-7.999-2.574-7.999-5.114V85.042
		c0-2.54,4.894-4.382,7.999-4.382h605.77c3.105,0,6.231,1.843,6.231,4.382V219.545z"/>
</g>
<rect x="1931.943" y="104.177" fill="none" width="571.451" height="122.482"/>
<text transform="matrix(1 0 0 1 1943.5692 138.2572)"><tspan x="0" y="0" fill="#FFFFFF" font-family="'MyriadPro-Regular'" font-size="48">Supprimer des contenus au </tspan><tspan x="-1.943" y="57.6" fill="#FFFFFF" font-family="'MyriadPro-Regular'" font-size="48">risque d’un effet Streisand ?</tspan></text>
<g>
	<g opacity="0.6" filter="url(#AI_GaussianBlur_7)">
		<path d="M3210.355,239.09c0,2.46-2.65,5.792-5.755,5.792h-605.77c-3.105,0-7.575-3.332-7.575-5.792V108.812
			c0-2.46,4.47-4.084,7.575-4.084h605.77c3.105,0,5.755,1.624,5.755,4.084V239.09z"/>
	</g>
	<path opacity="0.6" d="M3232.943,225.182c0,2.46-3.127,5.477-6.231,5.477h-605.77c-3.105,0-7.999-3.017-7.999-5.477V94.904
		c0-2.46,4.894-4.245,7.999-4.245h605.77c3.105,0,6.231,1.785,6.231,4.245V225.182z"/>
</g>
<rect x="2634.943" y="114.177" fill="none" width="571.451" height="125.707"/>
<text transform="matrix(1 0 0 1 2670.6404 148.2572)"><tspan x="0" y="0" fill="#FFFFFF" font-family="'MyriadPro-Regular'" font-size="48">Comment protéger la vie </tspan><tspan x="7.441" y="57.6" fill="#FFFFFF" font-family="'MyriadPro-Regular'" font-size="48">privée face au piratage ?</tspan></text>
<g>
	<g opacity="0.6" filter="url(#AI_GaussianBlur_7)">
		<path d="M3648.355,491.137c0,2.427-2.65,5.715-5.755,5.715h-605.77c-3.105,0-7.575-3.288-7.575-5.715V362.573
			c0-2.427,4.47-4.03,7.575-4.03h605.77c3.105,0,5.755,1.602,5.755,4.03V491.137z"/>
	</g>
	<path opacity="0.6" d="M3670.943,477.412c0,2.427-3.127,5.248-6.231,5.248h-605.77c-3.105,0-7.999-2.82-7.999-5.248V348.848
		c0-2.427,4.894-4.189,7.999-4.189h605.77c3.105,0,6.231,1.761,6.231,4.189V477.412z"/>
</g>
<rect x="3072.943" y="368.177" fill="none" width="571.451" height="96.312"/>
<text transform="matrix(1 0 0 1 3094.1443 402.2571)"><tspan x="0" y="0" fill="#FFFFFF" font-family="'MyriadPro-Regular'" font-size="48">Avenir des données en cas </tspan><tspan x="161.206" y="57.6" fill="#FFFFFF" font-family="'MyriadPro-Regular'" font-size="48">de décés ?</tspan></text>
<g>
	<g opacity="0.6" filter="url(#AI_GaussianBlur_7)">
		<path d="M3925.355,744.451c0,2.516-2.65,5.923-5.755,5.923h-605.77c-3.105,0-7.575-3.407-7.575-5.923V611.223
			c0-2.516,4.47-4.176,7.575-4.176h605.77c3.105,0,5.755,1.661,5.755,4.176V744.451z"/>
	</g>
	<path opacity="0.6" d="M3947.943,730.228c0,2.516-3.127,5.432-6.231,5.432h-605.77c-3.105,0-7.999-2.916-7.999-5.432V597
		c0-2.516,4.894-4.341,7.999-4.341h605.77c3.105,0,6.231,1.825,6.231,4.341V730.228z"/>
</g>
<rect x="3349.943" y="616.177" fill="none" width="571.451" height="108.311"/>
<text transform="matrix(1 0 0 1 3356.2654 650.2571)"><tspan x="0" y="0" fill="#FFFFFF" font-family="'MyriadPro-Regular'" font-size="48">Faut-il épargner les archives </tspan><tspan x="100.895" y="57.6" fill="#FFFFFF" font-family="'MyriadPro-Regular'" font-size="48">du droit à l’oubli ?</tspan></text>
<g>
	<g opacity="0.6" filter="url(#AI_GaussianBlur_7)">
		<path d="M3720.355,1863.685c0,3.447-2.65,8.117-5.755,8.117h-605.77c-3.105,0-7.575-4.67-7.575-8.117v-182.584
			c0-3.448,4.47-5.723,7.575-5.723h605.77c3.105,0,5.755,2.276,5.755,5.723V1863.685z"/>
	</g>
	<path opacity="0.6" d="M3742.943,1844.193c0,3.448-3.127,7.467-6.231,7.467h-605.77c-3.105,0-7.999-4.019-7.999-7.467v-182.584
		c0-3.447,4.894-5.949,7.999-5.949h605.77c3.105,0,6.231,2.502,6.231,5.949V1844.193z"/>
</g>
<rect x="3144.943" y="1679.177" fill="none" width="571.451" height="192.625"/>
<text transform="matrix(1 0 0 1 3224.8718 1713.2572)"><tspan x="0" y="0" fill="#FFFFFF" font-family="'MyriadPro-Regular'" font-size="48">Frontière floue entre </tspan><tspan x="-13.176" y="57.6" fill="#FFFFFF" font-family="'MyriadPro-Regular'" font-size="48">identité numérique et </tspan><tspan x="80.087" y="115.199" fill="#FFFFFF" font-family="'MyriadPro-Regular'" font-size="48">e-réputation</tspan></text>
<g>
	<g opacity="0.6" filter="url(#AI_GaussianBlur_7)">
		<path d="M3719.899,2625.543c0,4.721-2.241,11.116-4.868,11.116h-512.369c-2.626,0-6.407-6.395-6.407-11.116V2375.5
			c0-4.721,3.781-7.838,6.407-7.838h512.369c2.626,0,4.868,3.116,4.868,7.838V2625.543z"/>
	</g>
	<path opacity="0.6" d="M3738.943,2598.849c0,4.721-2.583,11.81-5.209,11.81h-512.369c-2.626,0-6.422-7.089-6.422-11.81v-250.043
		c0-4.721,3.795-8.147,6.422-8.147h512.369c2.626,0,5.209,3.426,5.209,8.147V2598.849z"/>
</g>
<rect x="3229.514" y="2369.652" fill="none" width="498.429" height="222.155"/>
<text transform="matrix(1 0 0 1 3234.2439 2403.7317)"><tspan x="0" y="0" fill="#FFFFFF" font-family="'MyriadPro-Regular'" font-size="48">Problèmes de définition, </tspan><tspan x="43.367" y="57.6" fill="#FFFFFF" font-family="'MyriadPro-Regular'" font-size="48">frontière floue entre </tspan><tspan x="25.512" y="115.199" fill="#FFFFFF" font-family="'MyriadPro-Regular'" font-size="48">identité numérique et </tspan><tspan x="118.774" y="172.8" fill="#FFFFFF" font-family="'MyriadPro-Regular'" font-size="48">e-réputation</tspan></text>
<g>
	<g opacity="0.6" filter="url(#AI_GaussianBlur_7)">
		<path d="M2983.978,2802.909c0,3.716-2.301,8.75-4.996,8.75h-525.908c-2.696,0-6.577-5.034-6.577-8.75v-196.824
			c0-3.716,3.881-6.169,6.577-6.169h525.908c2.696,0,4.996,2.453,4.996,6.169V2802.909z"/>
	</g>
	<path opacity="0.6" d="M3003.943,2781.896c0,3.716-3.07,9.763-5.765,9.763h-525.908c-2.696,0-7.326-6.046-7.326-9.763v-196.824
		c0-3.716,4.631-6.413,7.326-6.413h525.908c2.696,0,5.765,2.697,5.765,6.413V2781.896z"/>
</g>
<rect x="2483.514" y="2607.652" fill="none" width="498.429" height="172.766"/>
<text transform="matrix(1 0 0 1 2558.9226 2641.7317)"><tspan x="0" y="0" fill="#FFFFFF" font-family="'MyriadPro-Regular'" font-size="48">Le consentement </tspan><tspan x="-72.814" y="57.6" fill="#FFFFFF" font-family="'MyriadPro-Regular'" font-size="48">extorqué aux utilisateurs </tspan><tspan x="34.081" y="115.199" fill="#FFFFFF" font-family="'MyriadPro-Regular'" font-size="48">est-il valable ?</tspan></text>
<g>
	<g opacity="0.6" filter="url(#AI_GaussianBlur_7)">
		<path d="M2087.513,2603.238c0,2.844-2.051,6.695-4.455,6.695H1614.12c-2.404,0-5.864-3.851-5.864-6.695v-150.594
			c0-2.844,3.461-4.72,5.864-4.72h468.939c2.404,0,4.455,1.877,4.455,4.72V2603.238z"/>
	</g>
	<path opacity="0.6" d="M2104.943,2587.16c0,2.844-2.364,6.499-4.768,6.499h-468.939c-2.404,0-6.293-3.656-6.293-6.499v-150.594
		c0-2.843,3.89-4.907,6.293-4.907h468.939c2.404,0,4.768,2.063,4.768,4.907V2587.16z"/>
</g>
<rect x="1638.943" y="2468.191" fill="none" width="451" height="96.12"/>
<text transform="matrix(1 0 0 1 1648.7821 2502.2715)"><tspan x="0" y="0" fill="#FFFFFF" font-family="'MyriadPro-Regular'" font-size="48">Quelles données sont </tspan><tspan x="98.087" y="57.6" fill="#FFFFFF" font-family="'MyriadPro-Regular'" font-size="48">exploitées ?</tspan></text>
<g>
	<g opacity="0.6" filter="url(#AI_GaussianBlur_7)">
		<path d="M1325.685,2709.543c0,4.721-2.384,11.116-5.178,11.116H775.465c-2.794,0-6.816-6.395-6.816-11.116V2459.5
			c0-4.721,4.022-7.838,6.816-7.838h545.042c2.794,0,5.178,3.116,5.178,7.838V2709.543z"/>
	</g>
	<path opacity="0.6" d="M1345.943,2682.849c0,4.721-2.748,11.81-5.542,11.81H795.359c-2.794,0-7.417-7.089-7.417-11.81v-250.043
		c0-4.721,4.623-8.147,7.417-8.147h545.042c2.794,0,5.542,3.426,5.542,8.147V2682.849z"/>
</g>
<rect x="787.943" y="2460.702" fill="none" width="543" height="253.914"/>
<text transform="matrix(1 0 0 1 871.6219 2494.7827)"><tspan x="0" y="0" fill="#FFFFFF" font-family="'MyriadPro-Regular'" font-size="48">Est-il nécessaire de </tspan><tspan x="-50.447" y="57.6" fill="#FFFFFF" font-family="'MyriadPro-Regular'" font-size="48">surveiller tout le monde </tspan><tspan x="-53.11" y="115.199" fill="#FFFFFF" font-family="'MyriadPro-Regular'" font-size="48">pour en trouver un petit </tspan><tspan x="92.951" y="172.8" fill="#FFFFFF" font-family="'MyriadPro-Regular'" font-size="48">nombre ?</tspan></text>
<g>
	<g opacity="0.6" filter="url(#AI_GaussianBlur_7)">
		<path d="M506.943,1886.74c0,3.216-1.798,7.573-3.904,7.573H92.082c-2.106,0-5.139-4.356-5.139-7.573v-170.345
			c0-3.216,3.033-5.34,5.139-5.34h410.957c2.106,0,3.904,2.123,3.904,5.34V1886.74z"/>
	</g>
	<path opacity="0.6" d="M521.943,1868.555c0,3.216-1.798,7.105-3.904,7.105H107.082c-2.106,0-5.139-3.888-5.139-7.105v-170.345
		c0-3.216,3.033-5.55,5.139-5.55h410.957c2.106,0,3.904,2.334,3.904,5.55V1868.555z"/>
</g>
<rect x="112.568" y="1708.884" fill="none" width="399.75" height="161.992"/>
<text transform="matrix(1 0 0 1 127.622 1742.9644)"><tspan x="0" y="0" fill="#FFFFFF" font-family="'MyriadPro-Regular'" font-size="48">Comment gérer sa </tspan><tspan x="66.359" y="57.6" fill="#FFFFFF" font-family="'MyriadPro-Regular'" font-size="48">visibilité sur </tspan><tspan x="89.831" y="115.199" fill="#FFFFFF" font-family="'MyriadPro-Regular'" font-size="48">Internet ?</tspan></text>
<g>
	<g opacity="0.6" filter="url(#AI_GaussianBlur_7)">
		<path d="M784.943,2212.74c0,3.216-1.798,7.573-3.904,7.573H370.082c-2.106,0-5.139-4.356-5.139-7.573v-170.345
			c0-3.216,3.033-5.34,5.139-5.34h410.957c2.106,0,3.904,2.123,3.904,5.34V2212.74z"/>
	</g>
	<path opacity="0.6" d="M799.943,2194.554c0,3.217-1.798,7.105-3.904,7.105H385.082c-2.106,0-5.139-3.888-5.139-7.105v-170.345
		c0-3.216,3.033-5.55,5.139-5.55h410.957c2.106,0,3.904,2.334,3.904,5.55V2194.554z"/>
</g>
<rect x="390.568" y="2034.884" fill="none" width="399.75" height="161.992"/>
<text transform="matrix(1 0 0 1 425.3983 2068.9644)"><tspan x="0" y="0" fill="#FFFFFF" font-family="'MyriadPro-Regular'" font-size="48">Disparaitre fait-il </tspan><tspan x="38.976" y="57.6" fill="#FFFFFF" font-family="'MyriadPro-Regular'" font-size="48">plus de bruit </tspan><tspan x="15.216" y="115.199" fill="#FFFFFF" font-family="'MyriadPro-Regular'" font-size="48">qu’apparaître ?</tspan></text>
<rect x="2100.657" y="678.374" fill="none" width="528.571" height="176.929"/>
<text transform="matrix(1 0 0 1 2152.3062 712.4542)"><tspan x="0" y="0" fill="#FFFFFF" font-family="'MyriadPro-Regular'" font-size="48">Liberté d’information </tspan><tspan x="187.413" y="57.6" fill="#FFFFFF" font-family="'MyriadPro-Regular'" font-size="48">VS</tspan><tspan x="110.567" y="115.199" fill="#FFFFFF" font-family="'MyriadPro-Regular'" font-size="48"> vie privée</tspan></text>
<rect x="2352.657" y="1244.016" fill="none" width="531.857" height="111.207"/>
<text transform="matrix(1 0 0 1 2406.2847 1278.0968)"><tspan x="0" y="0" fill="#FFFFFF" font-family="'MyriadPro-Regular'" font-size="48">Gestion du statut des </tspan><tspan x="125.397" y="57.6" fill="#FFFFFF" font-family="'MyriadPro-Regular'" font-size="48">données</tspan></text>
<g>
	<g>
		<path fill="none" stroke="#CCCCCC" stroke-width="10" stroke-miterlimit="10" d="M1704.653,1255.488
			c0-233.139-501.033-152.403-562.715-319.583"/>
		<g>
			<polygon fill="#CCCCCC" points="1163.839,945.274 1144.03,941.765 1127.752,953.587 1135.943,906.659 			"/>
		</g>
	</g>
</g>
<g>
	<g>
		<path fill="none" stroke="#CCCCCC" stroke-width="10" stroke-miterlimit="10" d="M1047.167,704.553
			c-137.513-48.735-139.281-182.308-390.574-157.941"/>
		<g>
			<polygon fill="#CCCCCC" points="668.527,526.835 662.749,546.105 672.607,563.641 626.943,550.074 			"/>
		</g>
	</g>
</g>
<g>
	<g>
		<path fill="none" stroke="#CCCCCC" stroke-width="10" stroke-miterlimit="10" d="M1047.167,704.553
			c-80.881-102.002-84.212-152.34-99.919-248.717"/>
		<g>
			<polygon fill="#CCCCCC" points="967.761,466.637 948.2,461.939 931.239,472.756 942.248,426.408 			"/>
		</g>
	</g>
</g>
<g>
	<g>
		<path fill="none" stroke="#CCCCCC" stroke-width="10" stroke-miterlimit="10" d="M1856.443,1257.159
			c0-197.303,121.233-254.739,190.408-357.081"/>
		<g>
			<polygon fill="#CCCCCC" points="2054.973,921.635 2043.379,905.194 2023.497,902.126 2062.357,874.574 			"/>
		</g>
	</g>
</g>
<g>
	<g>
		<path fill="none" stroke="#CCCCCC" stroke-width="10" stroke-miterlimit="10" d="M2179.443,1428.945
			c44.858-21.185,64.208-71.991,125.284-84.62"/>
		<g>
			<polygon fill="#CCCCCC" points="2292.947,1364.842 2298.652,1345.55 2288.727,1328.052 2334.443,1341.445 			"/>
		</g>
	</g>
</g>
<g>
	<g>
		<path fill="none" stroke="#CCCCCC" stroke-width="10" stroke-miterlimit="10" d="M1888.586,1552.159
			c0,184.609,191.008,318.521,379.052,378.011"/>
		<g>
			<polygon fill="#CCCCCC" points="2248.891,1943.744 2261.758,1928.28 2259.56,1908.283 2296.256,1938.659 			"/>
		</g>
	</g>
</g>
<g>
	<g>
		<path fill="none" stroke="#CCCCCC" stroke-width="10" stroke-miterlimit="10" d="M1626.086,1552.159
			c-48.291,123.383-168.323,157.893-302.296,162.052"/>
		<g>
			<polygon fill="#CCCCCC" points="1337.456,1695.27 1329.961,1713.939 1338.196,1732.294 1293.943,1714.659 			"/>
		</g>
	</g>
</g>
<g>
	<g>
		<path fill="none" stroke="#CCCCCC" stroke-width="10" stroke-miterlimit="10" d="M1008.948,1870.876
			c-48.071,122.82-61.399,223.568-179.196,237.61"/>
		<g>
			<polygon fill="#CCCCCC" points="842.479,2088.713 835.885,2107.719 844.988,2125.659 799.943,2110.159 			"/>
		</g>
	</g>
</g>
<g>
	<g>
		<path fill="none" stroke="#CCCCCC" stroke-width="10" stroke-miterlimit="10" d="M1607.543,2148.099
			c-48.103,122.903-315.563,137.627-378.514,248.727"/>
		<g>
			<polygon fill="#CCCCCC" points="1217.962,2377.023 1232.048,2391.386 1252.164,2391.219 1218.237,2424.659 			"/>
		</g>
	</g>
</g>
<g>
	<g>
		<path fill="none" stroke="#CCCCCC" stroke-width="10" stroke-miterlimit="10" d="M1607.543,2148.099
			c-47.946,122.501,205.583,136.688,250.778,247.451"/>
		<g>
			<polygon fill="#CCCCCC" points="1836.133,2386.721 1856.02,2389.756 1872.01,2377.549 1864.943,2424.659 			"/>
		</g>
	</g>
</g>
<g>
	<g>
		<path fill="none" stroke="#CCCCCC" stroke-width="10" stroke-miterlimit="10" d="M2642.943,2038.099
			c142.452,150.787,386.229,208.204,518.88,342.662"/>
		<g>
			<polygon fill="#CCCCCC" points="3138.532,2383.193 3157.461,2376.381 3165.699,2358.028 3181.943,2402.81 			"/>
		</g>
	</g>
</g>
<g>
	<g>
		<path fill="none" stroke="#CCCCCC" stroke-width="10" stroke-miterlimit="10" d="M2897.943,1304.197
			c134.023,67.821,79.925,232.201,184.603,345.658"/>
		<g>
			<polygon fill="#CCCCCC" points="3059.784,1653.07 3078.35,1645.322 3085.662,1626.58 3104.12,1670.496 			"/>
		</g>
	</g>
</g>
<g>
	<g>
		<path fill="none" stroke="#CCCCCC" stroke-width="10" stroke-miterlimit="10" d="M2897.943,1304.197
			c205.725,39.75,123.317,115.992,287.667,151.93"/>
		<g>
			<polygon fill="#CCCCCC" points="3168.33,1471.486 3179.575,1454.805 3175.375,1435.131 3214.943,1461.659 			"/>
		</g>
	</g>
</g>
<g>
	<g>
		<path fill="none" stroke="#CCCCCC" stroke-width="10" stroke-miterlimit="10" d="M2659.943,661.348
			c126.984-75.718,401.253,12.913,616.185,15.709"/>
		<g>
			<polygon fill="#CCCCCC" points="3262.407,695.465 3270.23,676.932 3262.322,658.434 3306.256,676.849 			"/>
		</g>
	</g>
</g>
<g>
	<g>
		<path fill="none" stroke="#CCCCCC" stroke-width="10" stroke-miterlimit="10" d="M2659.943,661.348
			c124.431-74.195,201.591-164.576,339.845-192.093"/>
		<g>
			<polygon fill="#CCCCCC" points="2989.067,490.066 2993.735,470.498 2982.891,453.553 3029.256,464.49 			"/>
		</g>
	</g>
</g>
<g>
	<g>
		<path fill="none" stroke="#CCCCCC" stroke-width="10" stroke-miterlimit="10" d="M2659.943,661.348
			c123.275-73.507,140.747-262.012,175.937-387.924"/>
		<g>
			<polygon fill="#CCCCCC" points="2849.781,292.237 2834.291,279.401 2814.298,281.64 2844.599,244.882 			"/>
		</g>
	</g>
</g>
<g>
	<g>
		<path fill="none" stroke="#CCCCCC" stroke-width="10" stroke-miterlimit="10" d="M2659.943,661.348
			c80.318-99.64-180.276-267.003-278.841-405.592"/>
		<g>
			<polygon fill="#CCCCCC" points="2404.485,257.225 2384.686,260.793 2373.51,277.52 2364.943,230.659 			"/>
		</g>
	</g>
</g>
<g>
	<g>
		<path fill="none" stroke="#CCCCCC" stroke-width="10" stroke-miterlimit="10" d="M2897.943,1304.197
			c141.931-4.098,150.922-90.458,220.031-132.732"/>
		<g>
			<polygon fill="#CCCCCC" points="3113.838,1194.744 3112.664,1174.661 3097.394,1161.564 3144.943,1158.663 			"/>
		</g>
	</g>
</g>
<g>
	<g>
		<path fill="none" stroke="#CCCCCC" stroke-width="10" stroke-miterlimit="10" d="M2642.943,2038.099
			c78.53,122.032-37.668,326.045,58.343,500.796"/>
		<g>
			<polygon fill="#CCCCCC" points="2678.402,2536.313 2698.318,2533.474 2710.1,2517.168 2716.943,2564.312 			"/>
		</g>
	</g>
</g>
<g>
	<g>
		<path fill="none" stroke="#CCCCCC" stroke-width="10" stroke-miterlimit="10" d="M1016.653,1855.98
			c-48.526,123.983-308.365-35.659-460.944-56.654"/>
		<g>
			<polygon fill="#CCCCCC" points="571.27,1782.445 561.833,1800.212 568.071,1819.338 525.943,1797.099 			"/>
		</g>
	</g>
</g>
<g>
	<g>
		<path fill="none" stroke="#CCCCCC" stroke-width="10" stroke-miterlimit="10" d="M1746.943,1552.159
			c0,200.937-62.885,264.064-89.124,367.294"/>
		<g>
			<polygon fill="#CCCCCC" points="1642.908,1901.833 1659.325,1913.459 1679.091,1909.714 1651.658,1948.659 			"/>
		</g>
	</g>
</g>
</svg>
